<svg width="357" height="125" viewBox="0 0 357 125" fill="none" xmlns="http://www.w3.org/2000/svg">
<rect width="357" height="125" rx="30" fill="url(#paint0_linear_0_1)"/>
<path d="M98.9759 57.3125H91.5099C91.3736 56.3466 91.0952 55.4886 90.6747 54.7386C90.2543 53.9773 89.7145 53.3295 89.0554 52.7955C88.3963 52.2614 87.6349 51.8523 86.7713 51.5682C85.919 51.2841 84.9929 51.142 83.9929 51.142C82.1861 51.142 80.6122 51.5909 79.2713 52.4886C77.9304 53.375 76.8906 54.6705 76.152 56.375C75.4134 58.0682 75.044 60.125 75.044 62.5455C75.044 65.0341 75.4134 67.125 76.152 68.8182C76.902 70.5114 77.9474 71.7898 79.2884 72.6534C80.6293 73.517 82.1804 73.9489 83.9418 73.9489C84.9304 73.9489 85.8452 73.8182 86.6861 73.5568C87.5384 73.2955 88.294 72.9148 88.9531 72.4148C89.6122 71.9034 90.1577 71.2841 90.5895 70.5568C91.0327 69.8295 91.3395 69 91.5099 68.0682L98.9759 68.1023C98.7827 69.7045 98.2997 71.25 97.527 72.7386C96.7656 74.2159 95.7372 75.5398 94.4418 76.7102C93.1577 77.8693 91.6236 78.7898 89.8395 79.4716C88.0668 80.142 86.0611 80.4773 83.8224 80.4773C80.7088 80.4773 77.9247 79.7727 75.4702 78.3636C73.027 76.9545 71.0952 74.9148 69.6747 72.2443C68.2656 69.5739 67.5611 66.3409 67.5611 62.5455C67.5611 58.7386 68.277 55.5 69.7088 52.8295C71.1406 50.1591 73.0838 48.125 75.5384 46.7273C77.9929 45.3182 80.7543 44.6136 83.8224 44.6136C85.8452 44.6136 87.7202 44.8977 89.4474 45.4659C91.1861 46.0341 92.7259 46.8636 94.0668 47.9545C95.4077 49.0341 96.4986 50.358 97.3395 51.9261C98.1918 53.4943 98.7372 55.2898 98.9759 57.3125ZM111.393 64.8636V80H104.132V45.0909H111.189V58.4375H111.496C112.087 56.892 113.041 55.6818 114.359 54.8068C115.678 53.9205 117.331 53.4773 119.32 53.4773C121.138 53.4773 122.723 53.875 124.075 54.6705C125.439 55.4545 126.496 56.5852 127.246 58.0625C128.007 59.5284 128.382 61.2841 128.371 63.3295V80H121.109V64.625C121.121 63.0114 120.712 61.7557 119.882 60.858C119.064 59.9602 117.916 59.5114 116.439 59.5114C115.45 59.5114 114.575 59.7216 113.814 60.142C113.064 60.5625 112.473 61.1761 112.041 61.983C111.621 62.7784 111.405 63.7386 111.393 64.8636ZM146.017 80.5114C143.324 80.5114 141.006 79.9659 139.062 78.875C137.131 77.7727 135.642 76.2159 134.597 74.2045C133.551 72.1818 133.028 69.7898 133.028 67.0284C133.028 64.3352 133.551 61.9716 134.597 59.9375C135.642 57.9034 137.114 56.3182 139.011 55.1818C140.92 54.0455 143.159 53.4773 145.727 53.4773C147.455 53.4773 149.063 53.7557 150.551 54.3125C152.051 54.858 153.358 55.6818 154.472 56.7841C155.597 57.8864 156.472 59.2727 157.097 60.9432C157.722 62.6023 158.034 64.5455 158.034 66.7727V68.767H135.926V64.267H151.199C151.199 63.2216 150.972 62.2955 150.517 61.4886C150.063 60.6818 149.432 60.0511 148.625 59.5966C147.83 59.1307 146.903 58.8977 145.847 58.8977C144.744 58.8977 143.767 59.1534 142.915 59.6648C142.074 60.1648 141.415 60.8409 140.938 61.6932C140.46 62.5341 140.216 63.4716 140.205 64.5057V68.7841C140.205 70.0795 140.443 71.1989 140.92 72.142C141.409 73.0852 142.097 73.8125 142.983 74.3239C143.869 74.8352 144.92 75.0909 146.136 75.0909C146.943 75.0909 147.682 74.9773 148.352 74.75C149.023 74.5227 149.597 74.1818 150.074 73.7273C150.551 73.2727 150.915 72.7159 151.165 72.0568L157.881 72.5C157.54 74.1136 156.841 75.5227 155.784 76.7273C154.739 77.9205 153.386 78.8523 151.727 79.5227C150.08 80.1818 148.176 80.5114 146.017 80.5114ZM174.602 80.5114C171.92 80.5114 169.614 79.9432 167.682 78.8068C165.761 77.6591 164.284 76.0682 163.25 74.0341C162.227 72 161.716 69.6591 161.716 67.0114C161.716 64.3295 162.233 61.9773 163.267 59.9545C164.313 57.9205 165.795 56.3352 167.716 55.1989C169.636 54.0511 171.92 53.4773 174.568 53.4773C176.852 53.4773 178.852 53.892 180.568 54.7216C182.284 55.5511 183.642 56.7159 184.642 58.2159C185.642 59.7159 186.193 61.4773 186.295 63.5H179.443C179.25 62.1932 178.739 61.142 177.909 60.3466C177.091 59.5398 176.017 59.1364 174.688 59.1364C173.562 59.1364 172.58 59.4432 171.739 60.0568C170.909 60.6591 170.261 61.5398 169.795 62.6989C169.33 63.858 169.097 65.2614 169.097 66.9091C169.097 68.5795 169.324 70 169.778 71.1705C170.244 72.3409 170.898 73.233 171.739 73.8466C172.58 74.4602 173.562 74.767 174.688 74.767C175.517 74.767 176.261 74.5966 176.92 74.2557C177.591 73.9148 178.142 73.4205 178.574 72.7727C179.017 72.1136 179.307 71.3239 179.443 70.4034H186.295C186.182 72.4034 185.636 74.1648 184.659 75.6875C183.693 77.1989 182.358 78.3807 180.653 79.233C178.949 80.0852 176.932 80.5114 174.602 80.5114ZM197.524 72.4659L197.541 63.7557H198.598L206.984 53.8182H215.32L204.053 66.9773H202.331L197.524 72.4659ZM190.945 80V45.0909H198.206V80H190.945ZM207.308 80L199.604 68.5966L204.445 63.4659L215.814 80H207.308ZM229.634 80.5114C226.986 80.5114 224.696 79.9489 222.764 78.8239C220.844 77.6875 219.361 76.108 218.315 74.0852C217.27 72.0511 216.747 69.6932 216.747 67.0114C216.747 64.3068 217.27 61.9432 218.315 59.9205C219.361 57.8864 220.844 56.3068 222.764 55.1818C224.696 54.0455 226.986 53.4773 229.634 53.4773C232.281 53.4773 234.565 54.0455 236.486 55.1818C238.418 56.3068 239.906 57.8864 240.952 59.9205C241.997 61.9432 242.52 64.3068 242.52 67.0114C242.52 69.6932 241.997 72.0511 240.952 74.0852C239.906 76.108 238.418 77.6875 236.486 78.8239C234.565 79.9489 232.281 80.5114 229.634 80.5114ZM229.668 74.8864C230.872 74.8864 231.878 74.5455 232.685 73.8636C233.491 73.1705 234.099 72.2273 234.509 71.0341C234.929 69.8409 235.139 68.483 235.139 66.9602C235.139 65.4375 234.929 64.0795 234.509 62.8864C234.099 61.6932 233.491 60.75 232.685 60.0568C231.878 59.3636 230.872 59.017 229.668 59.017C228.452 59.017 227.429 59.3636 226.599 60.0568C225.781 60.75 225.162 61.6932 224.741 62.8864C224.332 64.0795 224.128 65.4375 224.128 66.9602C224.128 68.483 224.332 69.8409 224.741 71.0341C225.162 72.2273 225.781 73.1705 226.599 73.8636C227.429 74.5455 228.452 74.8864 229.668 74.8864ZM264.031 68.8523V53.8182H271.293V80H264.321V75.2443H264.048C263.457 76.7784 262.474 78.0114 261.099 78.9432C259.736 79.875 258.071 80.3409 256.105 80.3409C254.355 80.3409 252.815 79.9432 251.486 79.1477C250.156 78.3523 249.116 77.2216 248.366 75.7557C247.628 74.2898 247.253 72.5341 247.241 70.4886V53.8182H254.503V69.1932C254.514 70.7386 254.929 71.9602 255.747 72.858C256.565 73.7557 257.662 74.2045 259.037 74.2045C259.912 74.2045 260.73 74.0057 261.491 73.608C262.253 73.1989 262.866 72.5966 263.332 71.8011C263.81 71.0057 264.043 70.0227 264.031 68.8523ZM291.027 53.8182V59.2727H275.26V53.8182H291.027ZM278.839 47.5455H286.101V71.9545C286.101 72.625 286.203 73.1477 286.408 73.5227C286.612 73.8864 286.896 74.142 287.26 74.2898C287.635 74.4375 288.067 74.5114 288.555 74.5114C288.896 74.5114 289.237 74.483 289.578 74.4261C289.919 74.358 290.18 74.3068 290.362 74.2727L291.504 79.6761C291.141 79.7898 290.629 79.9205 289.97 80.0682C289.311 80.2273 288.51 80.3239 287.567 80.358C285.817 80.4261 284.283 80.1932 282.964 79.6591C281.658 79.125 280.641 78.2955 279.913 77.1705C279.186 76.0455 278.828 74.625 278.839 72.9091V47.5455Z" fill="#E7D5D7"/>
<defs>
<linearGradient id="paint0_linear_0_1" x1="178.5" y1="0" x2="178.5" y2="125" gradientUnits="userSpaceOnUse">
<stop stop-color="#872D37"/>
<stop offset="1" stop-color="#210B0D"/>
</linearGradient>
</defs>
</svg>